<svg xmlns="http://www.w3.org/2000/svg" fill="none" viewBox="47 47 307 307"><g clip-path="url(#a)"><g clip-path="url(#b)"><circle cx="200.646" cy="200.673" r="153.178" fill="#fff"/><mask id="c" width="307" height="307" x="47" y="47" maskUnits="userSpaceOnUse" style="mask-type:luminance"><path fill="#fff" d="M200.646 47.495c84.587 0 153.178 68.591 153.178 153.178s-68.591 153.178-153.178 153.178S47.468 285.26 47.468 200.673 116.059 47.495 200.646 47.495"/></mask><g fill="#8236fb" mask="url(#c)"><path d="m118.77 213.361.054-.054.055-.055a174 174 0 0 1 17.839-14.613c-.38-21.743 4.148-42.456 9.163-60.403v-.082l.055-.081c8.729-30.5 20.414-60.919 36.166-89.413-75.83 9.137-134.634 73.689-134.634 152.013 0 29.144 8.133 56.364 22.258 79.544 12.363-24.509 28.684-47.553 49.044-66.856m119.886 40.775.163-.109.162-.108c2.684-1.816 4.121-4.934 4.094-7.428v-.217c-.027-3.389-1.572-7.7-5.612-11.929l-.054-.055-.054-.054c-8.486-9.028-25.322-12.634-43.026-7.293 6.317 14.722 16.89 25.81 28.657 29.335 5.883 1.626 12.01.433 15.697-2.169z"/><path d="M239.767 52.564c-4.338 6.832-8.513 13.637-12.39 20.632-13.582 24.481-23.939 51.24-31.909 78.974-2.196 7.917-4.04 15.535-5.314 22.855 27.789-5.314 61.407-.759 84.641 23.885 11.305 11.902 19.52 28.196 19.737 46.794.325 20.523-10.194 39.528-26.407 50.671-17.676 12.362-40.097 14.884-59.265 9.462h-.135l-.136-.082c-27.545-8.106-46.631-28.467-58.153-51.321-17.297 17.459-31.151 39.013-40.938 62.274-.732 1.762-1.41 3.606-2.115 5.422 25.837 19.873 58.154 31.72 93.263 31.72 84.587 0 153.178-68.591 153.178-153.178 0-71.058-48.421-130.811-114.057-148.108"/></g></g></g><defs><clipPath id="a"><path fill="#fff" d="M0 .843h400v400H0z"/></clipPath><clipPath id="b"><path fill="#fff" d="M47.468 47.494h306.356V353.85H47.468z"/></clipPath></defs></svg>
