<svg xmlns="http://www.w3.org/2000/svg" xml:space="preserve" viewBox="4.85 21.1 58 58"><circle cx="33.85" cy="50.1" r="29" fill="#fff"/><path fill="#232d5b" d="m52.1 58.2 5.3 2.8c-1.7 3.4-3.8 6.2-6 8.3-2.3 2.1-4.9 3.7-7.7 4.8s-6.1 1.6-9.7 1.6c-8 0-14.2-2.6-18.7-7.8S8.6 56.8 8.6 50.2q0-9.3 5.7-16.5c4.8-6.2 11.3-9.2 19.4-9.2 8.3 0 15 3.1 20 9.4 3.5 4.4 5.3 10 5.4 16.6H14.9c.1 5.7 1.9 10.3 5.5 13.9 3.5 3.6 7.9 5.4 13 5.4 2.5 0 4.9-.4 7.3-1.3s4.4-2 6-3.4c1.7-1.4 3.4-3.7 5.4-6.9m0-13.1c-.8-3.3-2.1-6-3.7-8s-3.7-3.6-6.4-4.8-5.4-1.8-8.4-1.8c-4.8 0-8.9 1.5-12.4 4.6-2.5 2.2-4.4 5.6-5.7 10z"/></svg>
